<mxfile host="app.diagrams.net" modified="2024-03-16T09:06:32.356Z" agent="Mozilla/5.0 (Macintosh; Intel Mac OS X 10_15_7) AppleWebKit/537.36 (KHTML, like Gecko) Chrome/122.0.0.0 Safari/537.36" etag="HFiy6V3qCegwbi9iHwnt" version="24.0.7" type="github">
  <diagram name="第 1 页" id="BqpvpoylmKLSbsP2TXtK">
    <mxGraphModel dx="1434" dy="786" grid="1" gridSize="10" guides="1" tooltips="1" connect="1" arrows="1" fold="1" page="1" pageScale="1" pageWidth="827" pageHeight="1169" math="0" shadow="0">
      <root>
        <mxCell id="0" />
        <mxCell id="1" parent="0" />
        <mxCell id="NzE-OAB-AFuEiR2g14n5-12" value="" style="group" vertex="1" connectable="0" parent="1">
          <mxGeometry x="110" y="140" width="500" height="380" as="geometry" />
        </mxCell>
        <mxCell id="NzE-OAB-AFuEiR2g14n5-7" value="" style="rounded=0;whiteSpace=wrap;html=1;" vertex="1" parent="NzE-OAB-AFuEiR2g14n5-12">
          <mxGeometry width="500" height="380" as="geometry" />
        </mxCell>
        <mxCell id="NzE-OAB-AFuEiR2g14n5-13" value="" style="group" vertex="1" connectable="0" parent="NzE-OAB-AFuEiR2g14n5-12">
          <mxGeometry x="50" y="10" width="400" height="350" as="geometry" />
        </mxCell>
        <mxCell id="NzE-OAB-AFuEiR2g14n5-8" value="" style="group" vertex="1" connectable="0" parent="NzE-OAB-AFuEiR2g14n5-13">
          <mxGeometry y="50" width="400" height="300" as="geometry" />
        </mxCell>
        <mxCell id="NzE-OAB-AFuEiR2g14n5-1" value="bff" style="rounded=0;whiteSpace=wrap;html=1;fillColor=#fff2cc;strokeColor=#d6b656;" vertex="1" parent="NzE-OAB-AFuEiR2g14n5-8">
          <mxGeometry y="70" width="400" height="70" as="geometry" />
        </mxCell>
        <mxCell id="NzE-OAB-AFuEiR2g14n5-2" value="B端用户界面" style="rounded=0;whiteSpace=wrap;html=1;fillColor=#d5e8d4;strokeColor=#82b366;" vertex="1" parent="NzE-OAB-AFuEiR2g14n5-8">
          <mxGeometry y="230" width="400" height="70" as="geometry" />
        </mxCell>
        <mxCell id="NzE-OAB-AFuEiR2g14n5-3" value="后端服务" style="rounded=0;whiteSpace=wrap;html=1;fillColor=#e1d5e7;strokeColor=#9673a6;" vertex="1" parent="NzE-OAB-AFuEiR2g14n5-8">
          <mxGeometry width="120" height="60" as="geometry" />
        </mxCell>
        <mxCell id="NzE-OAB-AFuEiR2g14n5-4" value="grpc 后端服务" style="rounded=0;whiteSpace=wrap;html=1;fillColor=#e1d5e7;strokeColor=#9673a6;" vertex="1" parent="NzE-OAB-AFuEiR2g14n5-8">
          <mxGeometry x="130" width="140" height="60" as="geometry" />
        </mxCell>
        <mxCell id="NzE-OAB-AFuEiR2g14n5-5" value="后端服务" style="rounded=0;whiteSpace=wrap;html=1;fillColor=#e1d5e7;strokeColor=#9673a6;" vertex="1" parent="NzE-OAB-AFuEiR2g14n5-8">
          <mxGeometry x="280" width="120" height="60" as="geometry" />
        </mxCell>
        <mxCell id="NzE-OAB-AFuEiR2g14n5-6" value="网关" style="rounded=0;whiteSpace=wrap;html=1;fillColor=#647687;strokeColor=#314354;fontColor=#ffffff;" vertex="1" parent="NzE-OAB-AFuEiR2g14n5-8">
          <mxGeometry y="150" width="400" height="70" as="geometry" />
        </mxCell>
        <mxCell id="NzE-OAB-AFuEiR2g14n5-11" value="整体系统流程" style="text;html=1;align=center;verticalAlign=middle;whiteSpace=wrap;rounded=0;" vertex="1" parent="NzE-OAB-AFuEiR2g14n5-13">
          <mxGeometry x="155" width="90" height="30" as="geometry" />
        </mxCell>
      </root>
    </mxGraphModel>
  </diagram>
</mxfile>
